# Blender v2.77 (sub 0) OBJ File: ''
# www.blender.org
mtllib dodecahedron.mtl
o Solid
v 0.658502 0.000000 -0.406977
v -0.658502 0.000000 -0.406977
v 0.658502 0.000000 0.406977
v -0.658502 0.000000 0.406977
v 0.406977 0.658502 0.000000
v 0.406977 -0.658502 0.000000
v -0.406977 0.658502 0.000000
v -0.406977 -0.658502 0.000000
v 0.000000 0.406977 -0.658502
v 0.000000 0.406977 0.658502
v 0.000000 -0.406977 -0.658502
v 0.000000 -0.406977 0.658502
v 0.458794 0.458794 -0.458794
v 0.458794 -0.458794 -0.458794
v 0.458794 0.458794 0.458794
v 0.458794 -0.458794 0.458794
v -0.458794 0.458794 -0.458794
v -0.458794 -0.458794 -0.458794
v -0.458794 0.458794 0.458794
v -0.458794 -0.458794 0.458794
v 0.283550 0.000000 -0.742344
v -0.283550 0.000000 -0.742344
v 0.283550 0.000000 0.742344
v -0.283550 0.000000 0.742344
v 0.742344 0.283550 0.000000
v 0.742344 -0.283550 0.000000
v -0.742344 0.283550 0.000000
v -0.742344 -0.283550 0.000000
v 0.000000 0.742344 -0.283550
v 0.000000 0.742344 0.283550
v 0.000000 -0.742344 -0.283550
v 0.000000 -0.742344 0.283550
vn 0.8547 0.3265 -0.4035
vn 0.9794 0.0000 -0.2018
vn 0.8547 -0.3265 -0.4035
vn 0.6530 -0.2018 -0.7300
vn 0.6530 0.2018 -0.7300
vn -0.6530 0.2018 -0.7300
vn -0.6530 -0.2018 -0.7300
vn -0.8547 -0.3265 -0.4035
vn -0.9794 0.0000 -0.2018
vn -0.8547 0.3265 -0.4035
vn 0.6530 0.2018 0.7300
vn 0.6530 -0.2018 0.7300
vn 0.8547 -0.3265 0.4035
vn 0.9794 0.0000 0.2018
vn 0.8547 0.3265 0.4035
vn -0.8547 0.3265 0.4035
vn -0.9794 0.0000 0.2018
vn -0.8547 -0.3265 0.4035
vn -0.6530 -0.2018 0.7300
vn -0.6530 0.2018 0.7300
vn 0.4035 0.8547 -0.3265
vn 0.2018 0.9794 0.0000
vn 0.4035 0.8547 0.3265
vn 0.7300 0.6530 0.2018
vn 0.7300 0.6530 -0.2018
vn 0.7300 -0.6530 -0.2018
vn 0.7300 -0.6530 0.2018
vn 0.4035 -0.8547 0.3265
vn 0.2018 -0.9794 0.0000
vn 0.4035 -0.8547 -0.3265
vn -0.7300 0.6530 -0.2018
vn -0.7300 0.6530 0.2018
vn -0.4035 0.8547 0.3265
vn -0.2018 0.9794 0.0000
vn -0.4035 0.8547 -0.3265
vn -0.4035 -0.8547 -0.3265
vn -0.2018 -0.9794 0.0000
vn -0.4035 -0.8547 0.3265
vn -0.7300 -0.6530 0.2018
vn -0.7300 -0.6530 -0.2018
vn 0.3265 0.4035 -0.8547
vn 0.0000 0.2018 -0.9794
vn -0.3265 0.4035 -0.8547
vn -0.2018 0.7300 -0.6530
vn 0.2018 0.7300 -0.6530
vn 0.2018 0.7300 0.6530
vn -0.2018 0.7300 0.6530
vn -0.3265 0.4035 0.8547
vn 0.0000 0.2018 0.9794
vn 0.3265 0.4035 0.8547
vn 0.2018 -0.7300 -0.6530
vn -0.2018 -0.7300 -0.6530
vn -0.3265 -0.4035 -0.8547
vn 0.0000 -0.2018 -0.9794
vn 0.3265 -0.4035 -0.8547
vn 0.3265 -0.4035 0.8547
vn 0.0000 -0.2018 0.9794
vn -0.3265 -0.4035 0.8547
vn -0.2018 -0.7300 0.6530
vn 0.2018 -0.7300 0.6530
usemtl None
s off
f 1//1 13//1 25//1
f 1//2 25//2 26//2
f 1//3 26//3 14//3
f 1//4 14//4 21//4
f 1//5 21//5 13//5
f 2//6 17//6 22//6
f 2//7 22//7 18//7
f 2//8 18//8 28//8
f 2//9 28//9 27//9
f 2//10 27//10 17//10
f 3//11 15//11 23//11
f 3//12 23//12 16//12
f 3//13 16//13 26//13
f 3//14 26//14 25//14
f 3//15 25//15 15//15
f 4//16 19//16 27//16
f 4//17 27//17 28//17
f 4//18 28//18 20//18
f 4//19 20//19 24//19
f 4//20 24//20 19//20
f 5//21 13//21 29//21
f 5//22 29//22 30//22
f 5//23 30//23 15//23
f 5//24 15//24 25//24
f 5//25 25//25 13//25
f 6//26 14//26 26//26
f 6//27 26//27 16//27
f 6//28 16//28 32//28
f 6//29 32//29 31//29
f 6//30 31//30 14//30
f 7//31 17//31 27//31
f 7//32 27//32 19//32
f 7//33 19//33 30//33
f 7//34 30//34 29//34
f 7//35 29//35 17//35
f 8//36 18//36 31//36
f 8//37 31//37 32//37
f 8//38 32//38 20//38
f 8//39 20//39 28//39
f 8//40 28//40 18//40
f 9//41 13//41 21//41
f 9//42 21//42 22//42
f 9//43 22//43 17//43
f 9//44 17//44 29//44
f 9//45 29//45 13//45
f 10//46 15//46 30//46
f 10//47 30//47 19//47
f 10//48 19//48 24//48
f 10//49 24//49 23//49
f 10//50 23//50 15//50
f 11//51 14//51 31//51
f 11//52 31//52 18//52
f 11//53 18//53 22//53
f 11//54 22//54 21//54
f 11//55 21//55 14//55
f 12//56 16//56 23//56
f 12//57 23//57 24//57
f 12//58 24//58 20//58
f 12//59 20//59 32//59
f 12//60 32//60 16//60
